<?xml version="1.0" encoding="utf-8"?>
<!-- Generator: Adobe Illustrator 16.0.0, SVG Export Plug-In . SVG Version: 6.00 Build 0)  -->
<!DOCTYPE svg PUBLIC "-//W3C//DTD SVG 1.1//EN" "http://www.w3.org/Graphics/SVG/1.1/DTD/svg11.dtd">
<svg version="1.1" id="Layer_1" xmlns="http://www.w3.org/2000/svg" xmlns:xlink="http://www.w3.org/1999/xlink" x="0px" y="0px"
	 width="161.374px" height="47.137px" viewBox="0 0 161.374 47.137" enable-background="new 0 0 161.374 47.137"
	 xml:space="preserve">
<g>
	<path fill="#000000" d="M10.659,7.211h-0.589l-2.744,11.08H2.151L6.698,0h6.48c1.071,0,1.307,0.312,1.359,1.411l0.418,7.916h0.236
		l4.336-8.257C19.973,0.261,20.312,0,21.122,0h7.212l-4.547,18.291h-5.278l2.744-11.08h-0.262l-5.894,10.118
		c-0.445,0.784-0.784,1.045-1.463,1.045h-1.147c-0.993,0-0.873-0.314-0.951-1.359L10.659,7.211z"/>
	<g>
		<path fill="#000000" d="M31.295,12.224c-0.324,1.338-0.346,1.834-0.151,2.028c0.172,0.173,0.562,0.216,1.424,0.216h1.036
			c0.733,0,1.144,0,1.402-0.26c0.216-0.215,0.367-0.559,0.712-1.962l2.244-9.042h4.639l-2.244,9.042
			c-0.841,3.345-1.424,4.163-2.115,4.854c-1.014,1.014-2.136,1.209-4.079,1.209h-3.28c-2.114,0-3.302-0.279-3.971-0.949
			c-0.798-0.8-0.949-2.354-0.216-5.287l2.201-8.869h4.639L31.295,12.224z"/>
		<path fill="#000000" d="M45.65,13.216c-0.325,1.079-0.394,1.612-0.242,1.764s0.389,0.193,1.122,0.193h2.093
			c0.497,0,0.734,0,0.885-0.151c0.108-0.106,0.26-0.302,0.389-0.841c0.129-0.496,0.199-1.029,0.069-1.158
			c-0.064-0.065-0.194-0.108-0.453-0.172l-4.468-0.951c-0.971-0.215-1.423-0.431-1.833-0.82c-0.691-0.668-0.842-1.768-0.367-3.603
			c0.432-1.771,1.122-2.741,1.683-3.323c0.67-0.67,1.575-0.949,2.72-0.949h5.524c1.315,0,2.114,0.26,2.567,0.712
			c0.69,0.691,0.69,1.833,0.194,4.187h-4.252c0.173-0.885,0.266-1.377,0.114-1.529c-0.151-0.15-0.388-0.194-1.122-0.194h-1.748
			c-0.496,0-0.755,0-0.885,0.131c-0.107,0.107-0.216,0.323-0.345,0.819c-0.108,0.453-0.2,0.881-0.071,1.01
			c0.085,0.088,0.194,0.152,0.453,0.195l4.403,0.906c0.992,0.215,1.445,0.41,1.855,0.82c0.691,0.689,0.863,1.812,0.388,3.689
			c-0.453,1.812-1.144,2.806-1.726,3.388c-0.691,0.692-1.598,0.972-2.763,0.972h-5.869c-1.252,0-2.05-0.238-2.481-0.691
			c-0.669-0.668-0.733-2.092,0.043-4.402H45.65z"/>
		<path fill="#000000" d="M65.874,9.183C66.22,7.39,66.09,7.024,65.96,6.894c-0.128-0.129-0.323-0.194-1.122-0.194h-1.446
			c-0.669,0-0.906,0.044-1.078,0.217c-0.173,0.172-0.562,0.538-1.381,3.841c-0.799,3.172-0.583,3.711-0.432,3.862
			c0.129,0.129,0.324,0.194,1.122,0.194h1.447c0.668,0,0.906-0.043,1.079-0.217c0.151-0.15,0.409-0.409,0.97-2.33h4.338
			c-0.777,2.999-1.425,4.188-2.029,4.791c-1.015,1.014-2.05,1.252-3.625,1.252h-3.95c-1.92,0-2.697-0.367-3.128-0.799
			c-0.993-0.993-1.403-3.064-0.41-7.229c0.906-3.774,2.049-5.157,2.719-5.825c1.014-1.015,2.05-1.252,3.625-1.252h3.948
			c1.921,0,2.698,0.367,3.13,0.799c0.819,0.819,0.928,2.352,0.409,5.18H65.874z"/>
		<path fill="#000000" d="M74.906,14.845h6.905l-0.863,3.453H69.404l3.753-15.105h4.64L74.906,14.845z"/>
		<path fill="#000000" d="M94.41,18.298H82.196l3.755-15.105h12.214l-0.864,3.475h-7.573L89.146,9.02h5.48l-0.82,3.215h-5.459
			l-0.648,2.591h7.575L94.41,18.298z"/>
	</g>
	<path fill="#000000" d="M23.928,25.792l-1.383,5.535h9.051l-1.463,5.889h-9.051l-2.451,9.921h-8.497l6.877-27.669h21.541
		l-1.581,6.324H23.928z"/>
	<path fill="#000000" d="M34.14,43.157l5.888-23.689h7.276l-5.888,23.689H34.14z"/>
	<path fill="#000000" d="M61.662,24.983l-4.5,18.174h-7.275l4.5-18.174h-6.835l1.388-5.516h21.115l-1.387,5.516H61.662z"/>
	<path fill="#000000" d="M88.086,43.157h-4.264c-1.896,0-2.674-0.508-3.249-2.064l-4.298-11.945h-0.168l-3.452,14.01h-6.87
		l5.889-23.689h5.448c1.828,0,2.64,0.543,3.147,2.031l3.621,10.559h0.17l3.045-12.59h6.869L88.086,43.157z"/>
	<path fill="#000000" d="M108.789,43.186H89.636l5.888-23.688h19.153l-1.354,5.449h-11.878l-0.913,3.688h8.596l-1.286,5.043H99.28
		l-1.016,4.061h11.879L108.789,43.186z"/>
	<path fill="#000000" d="M118.567,35.255c-0.507,1.691-0.574,2.354-0.337,2.592c0.236,0.238,0.609,0.305,1.761,0.305h3.282
		c0.778,0,1.149,0,1.386-0.236c0.171-0.17,0.473-0.664,0.677-1.51c0.202-0.779,0.202-1.252,0-1.455
		c-0.103-0.102-0.305-0.17-0.712-0.27l-7.004-1.49c-1.521-0.338-2.233-0.676-2.876-1.286c-1.083-1.049-1.32-2.774-0.576-5.651
		c0.678-2.773,1.761-4.297,2.64-5.211c1.049-1.049,2.471-1.49,4.264-1.49h8.664c2.064,0,3.316,0.408,4.027,1.117
		c1.082,1.084,1.082,2.877,0.304,6.566h-6.667c0.271-1.389,0.322-2.143,0.084-2.379c-0.236-0.236-0.609-0.305-1.76-0.305h-2.74
		c-0.779,0-1.186,0-1.389,0.203c-0.168,0.17-0.353,0.788-0.557,1.566c-0.169,0.71-0.203,1.083,0,1.285
		c0.136,0.137,0.305,0.237,0.71,0.305l6.904,1.422c1.556,0.338,2.267,0.643,2.909,1.286c1.084,1.081,1.354,2.843,0.61,5.786
		c-0.712,2.843-1.795,4.4-2.707,5.313c-1.083,1.083-2.505,1.522-4.333,1.522h-9.203c-1.963,0-3.217-0.373-3.892-1.084
		c-1.049-1.048-1.149-3.283,0.067-6.902H118.567z"/>
	<path fill="#000000" d="M140.022,35.255c-0.508,1.691-0.573,2.354-0.337,2.592c0.236,0.238,0.608,0.305,1.76,0.305h3.282
		c0.777,0,1.15,0,1.387-0.236c0.169-0.17,0.474-0.664,0.676-1.51c0.203-0.779,0.203-1.252,0-1.455
		c-0.101-0.102-0.305-0.17-0.71-0.27l-7.005-1.49c-1.522-0.338-2.234-0.676-2.877-1.286c-1.082-1.049-1.32-2.774-0.575-5.651
		c0.677-2.773,1.761-4.297,2.64-5.211c1.049-1.049,2.471-1.49,4.265-1.49h8.662c2.063,0,3.316,0.408,4.026,1.117
		c1.083,1.084,1.083,2.877,0.307,6.566h-6.668c0.271-1.389,0.32-2.143,0.084-2.379c-0.238-0.236-0.609-0.305-1.761-0.305h-2.74
		c-0.778,0-1.186,0-1.388,0.203c-0.17,0.17-0.354,0.788-0.557,1.566c-0.17,0.71-0.203,1.083,0,1.285
		c0.135,0.137,0.303,0.237,0.711,0.305l6.902,1.422c1.556,0.338,2.268,0.643,2.91,1.286c1.082,1.081,1.354,2.843,0.609,5.786
		c-0.711,2.843-1.793,4.4-2.707,5.313c-1.083,1.083-2.504,1.522-4.331,1.522h-9.204c-1.964,0-3.216-0.373-3.893-1.084
		c-1.05-1.048-1.15-3.283,0.066-6.902H140.022z"/>
	<g>
		<path fill="#000000" d="M9.657,22.734c0.25-1.04,0.228-1.583,0.082-1.729c-0.083-0.082-0.229-0.146-0.603-0.146h-0.23
			c-0.374,0-0.812,0.058-0.958,0.202c-0.125,0.124-0.227,0.586-0.33,1.001c-0.104,0.395-0.125,0.665-0.125,0.812
			c0,0.414,0.208,0.893,0.728,1.726l1.145,1.526l2.289-2.144h4.284l-0.021,0.083l-4.888,4.492l2.808,4.078l-0.021,0.082H9.283
			l-1.103-1.643l-0.208,0.228c-0.916,0.978-1.539,1.437-2.829,1.437H3.335c-1.561,0-2.205-0.271-2.684-0.789
			c-0.749-0.75-0.811-1.771-0.395-3.807c0.353-1.644,0.583-2.061,1.184-2.664c0.521-0.52,1.354-0.895,2.435-1.103
			c-0.083-0.251-0.145-0.521-0.145-0.81c-0.021-0.48,0.062-1.062,0.27-1.832c0.353-1.33,0.707-2.017,1.268-2.58
			c0.749-0.748,1.519-0.996,3.099-0.996h1.935c1.933,0,2.537,0.271,2.953,0.687c0.666,0.665,0.686,1.663,0.167,3.889H9.657z
			 M6.051,29.506l0.403-0.718l-1.165-1.789L4.79,27.103c-0.166,0.039-0.773,0.133-0.877,0.217c-0.125,0.105-0.188,0.25-0.333,0.876
			c-0.166,0.767-0.174,1.447-0.008,1.612c0.167,0.166,0.836,0.178,1.127,0.178h0.146C5.344,29.985,5.677,29.901,6.051,29.506z"/>
	</g>
	<path fill="#000000" d="M160.876,24.226c0.315,0.32,0.498,0.751,0.498,1.213c0,0.472-0.177,0.893-0.503,1.208
		c-0.34,0.33-0.775,0.513-1.225,0.513c-0.459,0-0.886-0.183-1.216-0.517c-0.325-0.331-0.502-0.753-0.502-1.204
		c0-0.457,0.187-0.897,0.521-1.236c0.315-0.32,0.732-0.488,1.196-0.488C160.115,23.714,160.546,23.891,160.876,24.226z
		 M160.719,24.384c-0.287-0.291-0.656-0.445-1.068-0.445c-0.4,0-0.769,0.148-1.042,0.426c-0.292,0.297-0.455,0.68-0.455,1.074
		c0,0.389,0.156,0.758,0.44,1.047c0.282,0.286,0.659,0.444,1.043,0.444c0.406,0,0.774-0.153,1.072-0.44
		c0.282-0.272,0.435-0.642,0.435-1.039C161.144,25.034,160.996,24.661,160.719,24.384z M160.507,24.964
		c0,0.276-0.161,0.468-0.444,0.525l0.436,0.89h-0.411l-0.396-0.831h-0.365v0.831h-0.367v-1.952h0.736
		C160.24,24.427,160.507,24.608,160.507,24.964z M159.325,24.666v0.646h0.312c0.334,0,0.492-0.08,0.492-0.311
		c0-0.238-0.158-0.335-0.502-0.335H159.325z"/>
</g>
</svg>
