<?xml version="1.0" encoding="utf-8"?>
<!-- Generator: Adobe Illustrator 16.0.4, SVG Export Plug-In . SVG Version: 6.00 Build 0)  -->
<!DOCTYPE svg PUBLIC "-//W3C//DTD SVG 1.1//EN" "http://www.w3.org/Graphics/SVG/1.1/DTD/svg11.dtd">
<svg version="1.1" id="Layer_1" xmlns="http://www.w3.org/2000/svg" xmlns:xlink="http://www.w3.org/1999/xlink" x="0px" y="0px"
	 width="579.884px" height="119.077px" viewBox="0 0 579.884 119.077" enable-background="new 0 0 579.884 119.077"
	 xml:space="preserve">
<g>
	<g>
		<path fill="#E4244D" d="M60.165,116.555L70.293,16.41c0.57-5.135,1.569-5.992,3.281-5.992h0.998V4.713H58.167v5.705h0.999
			c2.282,0,3.423,1.57,3.138,5.992l-5.849,59.916L49.751,16.41c-0.572-4.707,0.569-5.992,3.139-5.992h0.284V4.713H30.349v5.705
			h1.143c2.14,0,2.14,0.857,2.568,5.992l1.712,15.266l-5.28,48.502l-5.99-63.768c-0.714-5.135,0.285-5.992,2.567-5.992h0.284V4.713
			H4.243v5.705h1.142c2.425,0,2.567,0.857,3.138,5.992l10.271,100.145h14.837l5.849-51.5l5.991,51.5H60.165z M158.458,50.934
			c0-6.99,0-9.416,4.422-9.416c2.996,0,2.996,1.141,2.996,6.99v59.773c0,2.141-0.714,2.568-1.855,2.568h-0.712v5.705h22.967v-5.705
			h-0.999c-1.568,0-1.996-0.572-1.996-2.854V45.371c0-10.273-2.14-14.268-12.269-14.268c-5.85,0-10.128,1.855-12.839,8.273
			c-1.143-5.705-4.138-8.273-11.983-8.273c-6.42,0-9.844,1.998-12.411,8.273v-8.273l-19.687,1.57v5.705h0.855
			c1.284,0,2.282,0.998,2.282,4.139v65.049c0,2.568-0.57,3.283-2.282,3.283h-0.855v5.705h21.969v-5.705h-0.855
			c-1.142,0-1.427-0.428-1.427-2.141V50.934c0-6.99-0.144-9.416,4.278-9.416c2.996,0,2.996,1.141,2.996,6.99v59.773
			c0,2.141-0.713,2.568-1.712,2.568h-0.998v5.705h22.541v-5.705h-0.286c-1.568,0-2.14-0.572-2.14-2.854V50.934z M318.95,116.555
			h27.535v-5.705h-1.857c-2.424,0-3.137-1-3.137-5.992V61.775h14.551v43.082c0,4.992-0.713,5.992-2.996,5.992h-2.141v5.705h27.391
			v-5.705h-2.281c-2.428,0-2.854-1-2.854-5.992V16.41c0-5.135,0.426-5.992,2.854-5.992h2.281V4.713h-27.391v5.705h2.141
			c2.283,0,2.996,0.857,2.996,5.992v38.658h-14.551V16.41c0-5.135,0.713-5.992,3.137-5.992h1.857V4.713H318.95v5.705h2.426
			c2.283,0,2.996,0.857,2.996,5.992v91.299c0,2.426-0.713,3.141-2.996,3.141h-2.426V116.555z M526.95,116.555h21.826v-5.705h-0.713
			c-1.426,0-1.57-0.428-1.57-2.141V50.934c0-6.99,0.145-9.416,4.566-9.416c3.279,0,3.279,1.141,3.279,6.99v59.773
			c0,2.141-0.568,2.568-1.566,2.568h-1v5.705h23.111v-5.705h-0.998c-1.57,0-1.855-0.572-1.855-2.854V45.371
			c0-10.273-2.568-14.268-12.555-14.268c-6.561,0-10.27,1.998-12.982,8.273V3l-20.969,1.713v5.705h2.141
			c1.424,0,2.281,0.857,2.281,3.996v93.152c0,2.568-0.43,3.283-2.281,3.283h-0.715V116.555z M90.979,117.553
			c18.262,0,20.829-15.264,20.829-43.225c0-28.102-2.711-43.225-20.829-43.225c-18.116,0-20.826,15.123-20.826,43.225
			C70.152,102.289,72.72,117.553,90.979,117.553L90.979,117.553z M229.217,116.555h21.969v-5.705h-1
			c-1.281,0-1.281-0.428-1.281-2.141V50.934c0-6.99,0-9.416,4.562-9.416c3.139,0,3.283,1.141,3.283,6.99v59.773
			c0,2.141-0.855,2.568-1.713,2.568h-1v5.705h23.112v-5.705h-0.998c-1.57,0-1.996-0.572-1.996-2.854V45.371
			c0-10.273-2.426-14.268-12.557-14.268c-6.416,0-10.27,1.998-12.693,8.273v-8.273l-21.115,1.57v5.705h2.283
			c1.285,0,2.281,0.998,2.281,4.139v65.049c0,2.568-0.568,3.283-2.281,3.283h-0.855V116.555z M431.651,117.553
			c7.561,0,10.414-3.707,11.982-8.131c1.426,6.562,2.996,8.131,11.555,8.131c9.986,0,11.271-5.99,11.129-17.689h-4.709
			c0,8.418-0.143,9.273-1.713,9.273c-1.426,0-1.426-0.713-1.426-5.422V48.223c0-11.27-3.707-17.119-16.832-17.119
			c-10.414,0-20.686,3.139-20.117,14.408c0.287,5.137,2.285,10.557,7.705,10.271c4.992-0.285,7.275-2.994,7.275-7.133
			c0-2.852-2.141-7.561-5.562-10.129c1.283-0.57,3.279-1.143,6.561-1.143c3.711,0,4.422,2.854,4.422,8.275v15.549
			c-18.973,6.42-22.967,8.988-22.967,32.812C418.954,111.135,423.093,117.553,431.651,117.553L431.651,117.553z M398.983,117.553
			c14.121,0,17.402-4.279,16.689-27.674h-5.85c0,18.545-0.57,19.971-7.131,19.971c-7.846,0-7.846-3.424-7.846-35.234v-2.57h22.822
			c0-32.096-3.564-40.941-18.686-40.941c-13.695,0-20.828,8.418-20.828,43.795C378.155,108.566,383.575,117.697,398.983,117.553
			L398.983,117.553z M209.386,117.553c13.84,0,17.691-4.279,17.119-27.674h-5.846c0,18.545-0.856,19.971-7.562,19.971
			c-8.417,0-7.989-3.424-7.989-35.234v-2.57h22.112c0-32.096-2.995-40.941-17.833-40.941c-13.835,0-20.969,8.418-20.969,43.795
			C188.417,108.566,193.837,117.697,209.386,117.553L209.386,117.553z M469.458,116.555h22.826v-5.705h-1.713
			c-1.428,0-1.998-0.715-1.998-2.996V3l-21.256,1.713v5.705h2.426c1.426,0,1.996,0.57,1.996,2.854v94.867
			c0,2.139-0.143,2.711-1.141,2.711h-1.141V116.555z M302.829,117.553c10.416,0,15.838-6.848,15.838-17.117
			c0-24.109-21.828-38.09-21.828-55.352c0-5.279,1.855-6.848,5.564-6.848c5.42,0,6.277,2.283,7.275,10.414l0.854,7.988h6.277V31.816
			h-4.99c-0.287,3.141-0.998,4.281-1.287,3.852c-1.566-1.854-5.277-4.564-11.41-4.564c-9.131,0-17.119,4.137-17.119,17.689
			c0,21.113,21.684,37.234,21.684,53.354c0,6.99-1.568,8.131-6.562,8.131c-4.992,0-6.275-2.281-7.273-12.838l-0.715-6.992h-6.562
			v26.107h5.705c0.43-2.854,1.43-4.707,2.283-3.852C292.417,114.844,294.413,117.553,302.829,117.553L302.829,117.553z
			 M496.562,98.867c0,13.551,1.998,18.686,15.406,18.686c9.416,0,11.557-3.707,11.557-14.121V89.307h-5.707v14.838
			c0,4.992-0.428,5.562-2.281,5.562c-1.855,0-2.283-0.57-2.283-4.992V38.236h10.414v-6.42h-10.271V10.418h-5.848
			c-4.139,18.975-7.703,21.398-13.268,21.398h-1.568v6.277h3.85V98.867z M90.979,110.277c-3.992,0-3.992-2.281-3.992-35.949
			c0-33.809,0-36.092,3.992-36.092c3.995,0,3.995,2.283,3.995,36.092C94.974,108.139,94.974,110.277,90.979,110.277L90.979,110.277z
			 M279.149,35.385c14.264-10.559,17.119-18.547,12.41-25.822c-2.568-3.994-8.418-6.562-12.697-2.996
			c-5.137,4.279-3.852,11.699,5.707,15.979c-1.713,1.996-5.707,5.85-8.988,9.131L279.149,35.385z M438.499,107.566
			c-3.424,0-3.424-3.564-3.424-14.834c0-20.543,0-23.254,6.846-26.963v35.236C441.921,106.283,441.21,107.566,438.499,107.566
			L438.499,107.566z M205.107,66.055c0.285-26.678,0.714-27.961,4.423-27.961c3.566,0,3.282,1.428,3.282,27.961H205.107z
			 M394.847,66.055c0.428-26.678,0.713-27.961,4.422-27.961s3.137,1.428,3.137,27.961H394.847z"/>
	</g>
</g>
</svg>
